<svg xmlns="http://www.w3.org/2000/svg" xmlns:xlink="http://www.w3.org/1999/xlink" width="1366" zoomAndPan="magnify" viewBox="0 0 1024.5 576" height="768" preserveAspectRatio="xMidYMid meet" version="1.0"><defs><clipPath id="f98d2656ef"><path d="M 396 405 L 628 405 L 628 511.246094 L 396 511.246094 Z M 396 405 " clip-rule="nonzero"/></clipPath><clipPath id="6beb0a2d74"><path d="M 369 64.460938 L 654 64.460938 L 654 450 L 369 450 Z M 369 64.460938 " clip-rule="nonzero"/></clipPath></defs><g clip-path="url(#f98d2656ef)"><path fill="#a6192e" d="M 441.164062 430.253906 C 442.71875 429.460938 444.332031 428.699219 445.976562 427.980469 C 451.929688 425.371094 454.640625 418.433594 452.039062 412.480469 C 449.429688 406.53125 442.480469 403.832031 436.539062 406.425781 C 434.472656 407.332031 432.472656 408.277344 430.476562 409.292969 C 408.394531 420.609375 396.226562 435.707031 396.226562 451.816406 C 396.226562 468.011719 408.394531 483.132812 430.496094 494.398438 C 452.183594 505.441406 481.039062 511.527344 511.746094 511.527344 C 542.464844 511.527344 571.316406 505.441406 592.992188 494.398438 C 615.085938 483.128906 627.257812 468.007812 627.257812 451.816406 C 627.257812 435.714844 615.09375 420.613281 592.992188 409.28125 C 590.722656 408.125 588.363281 407.023438 585.945312 405.980469 C 579.96875 403.417969 573.054688 406.164062 570.484375 412.125 C 567.917969 418.09375 570.667969 425.019531 576.632812 427.582031 C 578.585938 428.425781 580.472656 429.3125 582.277344 430.226562 C 598.113281 438.339844 603.730469 446.925781 603.730469 451.8125 C 603.730469 456.746094 598.117188 465.367188 582.308594 473.429688 C 563.878906 482.828125 538.816406 487.996094 511.746094 487.996094 C 484.679688 487.996094 459.617188 482.828125 441.183594 473.429688 C 425.363281 465.375 419.761719 456.75 419.761719 451.8125 C 419.753906 446.929688 425.367188 438.347656 441.164062 430.253906 Z M 441.164062 430.253906 " fill-opacity="1" fill-rule="nonzero"/></g><g clip-path="url(#6beb0a2d74)"><path fill="#a6192e" d="M 513.300781 64.503906 C 512.984375 64.476562 512.664062 64.460938 512.34375 64.460938 L 511.15625 64.460938 C 510.832031 64.460938 510.515625 64.476562 510.207031 64.503906 C 432.683594 65.644531 369.773438 129.417969 369.773438 206.847656 C 368.550781 283.886719 427.5 354.386719 470.542969 405.859375 C 483.164062 420.957031 494.066406 434 501.445312 444.800781 C 503.628906 448.007812 507.269531 449.929688 511.160156 449.929688 L 512.347656 449.929688 C 516.238281 449.929688 519.878906 448.007812 522.066406 444.800781 C 529.433594 433.996094 540.34375 420.957031 552.964844 405.855469 C 596.003906 354.382812 654.945312 283.875 653.726562 207.035156 C 653.722656 129.421875 590.804688 65.65625 513.300781 64.503906 Z M 534.910156 390.765625 C 526.265625 401.105469 518.402344 410.507812 511.746094 419.097656 C 505.089844 410.507812 497.230469 401.105469 488.589844 390.769531 C 447.914062 342.125 392.214844 275.5 393.300781 207.035156 C 393.300781 141.992188 446.210938 88.605469 511.257812 88.019531 C 511.421875 88.019531 511.582031 88.011719 511.746094 88.003906 C 511.910156 88.011719 512.070312 88.019531 512.238281 88.019531 C 577.277344 88.605469 630.191406 141.992188 630.191406 207.21875 C 631.277344 275.5 575.582031 342.117188 534.910156 390.765625 Z M 534.910156 390.765625 " fill-opacity="1" fill-rule="nonzero"/></g><path fill="#a6192e" d="M 511.746094 155.058594 C 482.996094 155.371094 459.753906 178.519531 459.753906 207.054688 C 459.753906 235.59375 482.96875 258.738281 511.746094 259.050781 C 540.527344 258.738281 563.738281 235.59375 563.738281 207.054688 C 563.738281 178.519531 540.496094 155.371094 511.746094 155.058594 Z M 511.746094 155.058594 " fill-opacity="1" fill-rule="nonzero"/></svg>