<svg xmlns="http://www.w3.org/2000/svg" xmlns:xlink="http://www.w3.org/1999/xlink" width="1366" zoomAndPan="magnify" viewBox="0 0 1024.5 576" height="768" preserveAspectRatio="xMidYMid meet" version="1.0"><defs><clipPath id="f42cbcaf5e"><path d="M 281.710938 57.710938 L 742.289062 57.710938 L 742.289062 518.289062 L 281.710938 518.289062 Z M 281.710938 57.710938 " clip-rule="nonzero"/></clipPath><clipPath id="02041fa084"><path d="M 512 57.710938 C 384.816406 57.710938 281.710938 160.816406 281.710938 288 C 281.710938 415.183594 384.816406 518.289062 512 518.289062 C 639.183594 518.289062 742.289062 415.183594 742.289062 288 C 742.289062 160.816406 639.183594 57.710938 512 57.710938 Z M 512 57.710938 " clip-rule="nonzero"/></clipPath><clipPath id="8430a22e79"><path d="M 329.460938 108.816406 L 695 108.816406 L 695 456.785156 L 329.460938 456.785156 Z M 329.460938 108.816406 " clip-rule="nonzero"/></clipPath><clipPath id="1475b09d8a"><path d="M 512 108.816406 L 555.09375 241.730469 L 694.539062 241.730469 L 581.722656 323.875 L 624.816406 456.785156 L 512 374.640625 L 399.183594 456.785156 L 442.277344 323.875 L 329.460938 241.730469 L 468.90625 241.730469 Z M 512 108.816406 " clip-rule="nonzero"/></clipPath></defs><g clip-path="url(#f42cbcaf5e)"><g clip-path="url(#02041fa084)"><path fill="#a6192e" d="M 281.710938 57.710938 L 742.289062 57.710938 L 742.289062 518.289062 L 281.710938 518.289062 Z M 281.710938 57.710938 " fill-opacity="1" fill-rule="nonzero"/></g></g><g clip-path="url(#8430a22e79)"><g clip-path="url(#1475b09d8a)"><path fill="#fdfaf5" d="M 329.460938 108.816406 L 695.097656 108.816406 L 695.097656 456.785156 L 329.460938 456.785156 Z M 329.460938 108.816406 " fill-opacity="1" fill-rule="nonzero"/></g></g></svg>