<svg xmlns="http://www.w3.org/2000/svg" xmlns:xlink="http://www.w3.org/1999/xlink" width="1366" zoomAndPan="magnify" viewBox="0 0 1024.5 576" height="768" preserveAspectRatio="xMidYMid meet" version="1.0"><defs><clipPath id="f5e32c1a60"><path d="M 281.710938 57.710938 L 742.289062 57.710938 L 742.289062 518.289062 L 281.710938 518.289062 Z M 281.710938 57.710938 " clip-rule="nonzero"/></clipPath><clipPath id="1cd0068064"><path d="M 512 57.710938 C 384.816406 57.710938 281.710938 160.816406 281.710938 288 C 281.710938 415.183594 384.816406 518.289062 512 518.289062 C 639.183594 518.289062 742.289062 415.183594 742.289062 288 C 742.289062 160.816406 639.183594 57.710938 512 57.710938 Z M 512 57.710938 " clip-rule="nonzero"/></clipPath><clipPath id="f868a6ece5"><path d="M 351.621094 269 L 490 269 L 490 404 L 351.621094 404 Z M 351.621094 269 " clip-rule="nonzero"/></clipPath><clipPath id="78a5c7c4d4"><path d="M 533 269 L 670.660156 269 L 670.660156 404 L 533 404 Z M 533 269 " clip-rule="nonzero"/></clipPath></defs><g clip-path="url(#f5e32c1a60)"><g clip-path="url(#1cd0068064)"><path fill="#a6192e" d="M 281.710938 57.710938 L 742.289062 57.710938 L 742.289062 518.289062 L 281.710938 518.289062 Z M 281.710938 57.710938 " fill-opacity="1" fill-rule="nonzero"/></g></g><path fill="#fdfaf5" d="M 448.601562 236.789062 L 575.308594 236.789062 C 578.441406 236.789062 580.96875 234.257812 580.96875 231.125 C 580.96875 207.640625 563.746094 188.128906 541.34375 184.515625 C 551.460938 176.082031 557.964844 163.316406 557.964844 149.105469 C 557.964844 123.8125 537.371094 103.214844 511.957031 103.214844 C 486.542969 103.214844 465.945312 123.8125 465.945312 149.105469 C 465.945312 163.316406 472.449219 176.082031 482.566406 184.515625 C 460.042969 188.128906 442.941406 207.640625 442.941406 231.125 C 442.941406 234.257812 445.472656 236.789062 448.601562 236.789062 Z M 477.269531 149.105469 C 477.269531 130.074219 492.804688 114.535156 511.957031 114.535156 C 531.105469 114.535156 546.644531 130.074219 546.644531 149.105469 C 546.644531 168.253906 531.105469 183.792969 511.957031 183.792969 C 492.804688 183.792969 477.269531 168.253906 477.269531 149.105469 Z M 490.15625 195.234375 L 533.757812 195.234375 C 551.582031 195.234375 566.515625 208.363281 569.167969 225.464844 L 454.746094 225.464844 C 457.394531 208.363281 472.328125 195.234375 490.15625 195.234375 Z M 490.15625 195.234375 " fill-opacity="1" fill-rule="nonzero"/><g clip-path="url(#f868a6ece5)"><path fill="#fdfaf5" d="M 489.914062 397.460938 C 489.914062 374.09375 472.691406 354.582031 450.289062 350.96875 C 460.40625 342.417969 466.910156 329.769531 466.910156 315.558594 C 466.910156 290.265625 446.195312 269.546875 420.898438 269.546875 C 395.488281 269.546875 374.890625 290.265625 374.890625 315.558594 C 374.890625 329.769531 381.394531 342.417969 391.511719 350.96875 C 368.988281 354.582031 351.886719 374.09375 351.886719 397.460938 C 351.886719 400.589844 354.414062 403.242188 357.546875 403.242188 L 484.253906 403.242188 C 487.386719 403.242188 489.914062 400.589844 489.914062 397.460938 Z M 386.210938 315.558594 C 386.210938 296.527344 401.75 280.992188 420.898438 280.992188 C 440.050781 280.992188 455.589844 296.527344 455.589844 315.558594 C 455.589844 334.707031 440.050781 350.246094 420.898438 350.246094 C 401.75 350.246094 386.210938 334.707031 386.210938 315.558594 Z M 363.6875 391.800781 C 366.339844 374.695312 381.273438 361.566406 399.101562 361.566406 L 442.699219 361.566406 C 460.527344 361.566406 475.460938 374.695312 478.109375 391.800781 Z M 363.6875 391.800781 " fill-opacity="1" fill-rule="nonzero"/></g><g clip-path="url(#78a5c7c4d4)"><path fill="#fdfaf5" d="M 632.398438 350.96875 C 642.519531 342.417969 649.023438 329.769531 649.023438 315.558594 C 649.023438 290.265625 628.425781 269.546875 603.011719 269.546875 C 577.597656 269.546875 557.003906 290.265625 557.003906 315.558594 C 557.003906 329.769531 563.507812 342.417969 573.625 350.96875 C 551.101562 354.582031 533.996094 374.09375 533.996094 397.460938 C 533.996094 400.589844 536.527344 403.242188 539.660156 403.242188 L 666.367188 403.242188 C 669.496094 403.242188 672.027344 400.589844 672.027344 397.460938 C 672.027344 374.09375 654.804688 354.582031 632.398438 350.96875 Z M 568.324219 315.558594 C 568.324219 296.527344 583.859375 280.992188 603.011719 280.992188 C 622.164062 280.992188 637.699219 296.527344 637.699219 315.558594 C 637.699219 334.707031 622.164062 350.246094 603.011719 350.246094 C 583.859375 350.246094 568.324219 334.707031 568.324219 315.558594 Z M 545.800781 391.800781 C 548.449219 374.695312 563.386719 361.566406 581.210938 361.566406 L 624.8125 361.566406 C 642.636719 361.566406 657.574219 374.695312 660.222656 391.800781 Z M 545.800781 391.800781 " fill-opacity="1" fill-rule="nonzero"/></g><path fill="#fdfaf5" d="M 553.75 429.738281 C 550.980469 428.414062 547.488281 429.617188 546.164062 432.507812 C 540.863281 443.589844 526.890625 451.058594 511.355469 451.058594 C 496.78125 451.058594 483.53125 444.675781 477.386719 434.675781 C 475.824219 432.027344 472.328125 431.183594 469.679688 432.75 C 466.910156 434.4375 466.066406 437.929688 467.753906 440.578125 C 475.941406 454.070312 492.683594 462.378906 511.355469 462.378906 C 531.105469 462.378906 549.292969 452.382812 556.398438 437.328125 C 557.726562 434.558594 556.519531 431.0625 553.75 429.738281 Z M 553.75 429.738281 " fill-opacity="1" fill-rule="nonzero"/><path fill="#fdfaf5" d="M 383.683594 250.277344 C 384.765625 250.277344 385.851562 250.035156 386.695312 249.433594 C 389.34375 247.628906 390.066406 244.132812 388.378906 241.484375 C 382.480469 232.570312 383.320312 218.839844 390.308594 207.277344 C 396.8125 196.4375 407.652344 189.453125 417.769531 189.453125 C 420.898438 189.453125 423.429688 186.921875 423.429688 183.792969 C 423.429688 180.660156 420.78125 178.132812 417.769531 178.132812 C 417.648438 178.132812 417.648438 178.132812 417.648438 178.132812 C 403.554688 178.132812 389.34375 187.042969 380.550781 201.378906 C 371.277344 216.914062 370.554688 235.101562 378.863281 247.746094 C 379.949219 249.433594 381.757812 250.277344 383.683594 250.277344 Z M 383.683594 250.277344 " fill-opacity="1" fill-rule="nonzero"/><path fill="#fdfaf5" d="M 606.144531 189.453125 C 616.261719 189.453125 627.101562 196.4375 633.605469 207.277344 C 640.589844 218.839844 641.433594 232.570312 635.53125 241.484375 C 633.84375 244.132812 634.566406 247.628906 637.21875 249.433594 C 638.0625 250.035156 639.144531 250.277344 640.230469 250.277344 C 642.15625 250.277344 643.964844 249.433594 645.046875 247.746094 C 653.359375 235.101562 652.636719 216.914062 643.359375 201.378906 C 634.566406 187.042969 620.355469 178.132812 606.265625 178.132812 C 606.265625 178.132812 606.265625 178.132812 606.144531 178.132812 C 603.132812 178.132812 600.484375 180.660156 600.484375 183.792969 C 600.484375 186.921875 603.011719 189.453125 606.144531 189.453125 Z M 606.144531 189.453125 " fill-opacity="1" fill-rule="nonzero"/></svg>