<svg xmlns="http://www.w3.org/2000/svg" xmlns:xlink="http://www.w3.org/1999/xlink" width="1366" zoomAndPan="magnify" viewBox="0 0 1024.5 576" height="768" preserveAspectRatio="xMidYMid meet" version="1.0"><defs><clipPath id="4ff604171d"><path d="M 281.710938 57.710938 L 742.289062 57.710938 L 742.289062 518.289062 L 281.710938 518.289062 Z M 281.710938 57.710938 " clip-rule="nonzero"/></clipPath><clipPath id="c785dd1391"><path d="M 512 57.710938 C 384.816406 57.710938 281.710938 160.816406 281.710938 288 C 281.710938 415.183594 384.816406 518.289062 512 518.289062 C 639.183594 518.289062 742.289062 415.183594 742.289062 288 C 742.289062 160.816406 639.183594 57.710938 512 57.710938 Z M 512 57.710938 " clip-rule="nonzero"/></clipPath><clipPath id="8267775ec5"><path d="M 364.632812 155.183594 L 632 155.183594 L 632 421 L 364.632812 421 Z M 364.632812 155.183594 " clip-rule="nonzero"/></clipPath><clipPath id="6135c97105"><path d="M 415 155.183594 L 660 155.183594 L 660 421 L 415 421 Z M 415 155.183594 " clip-rule="nonzero"/></clipPath></defs><g clip-path="url(#4ff604171d)"><g clip-path="url(#c785dd1391)"><path fill="#a6192e" d="M 281.710938 57.710938 L 742.289062 57.710938 L 742.289062 518.289062 L 281.710938 518.289062 Z M 281.710938 57.710938 " fill-opacity="1" fill-rule="nonzero"/></g></g><g clip-path="url(#8267775ec5)"><path fill="#fdfaf5" d="M 410.292969 400.136719 L 410.292969 208.710938 L 433.019531 208.710938 L 398.894531 155.183594 L 364.769531 208.710938 L 387.496094 208.710938 L 387.496094 410.460938 C 387.496094 416.179688 392.605469 420.789062 398.894531 420.789062 L 631.125 420.789062 L 631.125 400.136719 Z M 410.292969 400.136719 " fill-opacity="1" fill-rule="nonzero"/></g><g clip-path="url(#6135c97105)"><path fill="#fdfaf5" d="M 659.210938 420.789062 L 636.414062 420.789062 L 636.414062 175.835938 L 415.582031 175.835938 L 415.582031 155.183594 L 647.8125 155.183594 C 654.101562 155.183594 659.210938 159.792969 659.210938 165.511719 Z M 659.210938 420.789062 " fill-opacity="1" fill-rule="nonzero"/></g><path fill="#fdfaf5" d="M 538.46875 272.78125 C 533.539062 272.78125 529.429688 273.890625 525.75 275.746094 C 522.460938 277.5 519.601562 279.964844 516.992188 283.179688 L 516.707031 283.179688 C 513.847656 276.855469 507.132812 272.78125 498.375 272.78125 C 487.011719 272.78125 481.011719 278.5 478.117188 282.464844 L 477.722656 282.464844 L 476.902344 274.28125 L 459.25 274.28125 C 459.535156 279.75 459.785156 286.074219 459.785156 293.613281 L 459.785156 334.921875 L 480.046875 334.921875 L 480.046875 299.582031 C 480.046875 297.972656 480.1875 296.222656 480.867188 294.757812 C 482.082031 291.792969 485.261719 288.074219 490.585938 288.074219 C 497.304688 288.074219 500.304688 293.292969 500.304688 300.832031 L 500.304688 334.921875 L 520.566406 334.921875 L 520.566406 299.476562 C 520.566406 297.867188 520.851562 296.007812 521.246094 294.652344 C 522.746094 291.042969 526.035156 288.074219 530.964844 288.074219 C 537.683594 288.074219 540.828125 293.148438 540.828125 301.976562 L 540.828125 334.921875 L 561.089844 334.921875 L 561.089844 299.1875 C 561.054688 280.964844 551.332031 272.78125 538.46875 272.78125 Z M 538.46875 272.78125 " fill-opacity="1" fill-rule="nonzero"/><path fill="#fdfaf5" d="M 580.921875 277.25 L 580.921875 277.140625 L 585.03125 274.03125 C 591.535156 268.816406 596.859375 263.417969 596.859375 256.59375 C 596.859375 249.339844 591.390625 244.015625 581.242188 244.015625 C 575.273438 244.015625 570.023438 245.875 566.734375 248.160156 L 569.664062 254.84375 C 571.988281 253.308594 575.347656 251.554688 579.167969 251.554688 C 584.316406 251.554688 586.421875 254.164062 586.421875 257.453125 C 586.351562 262.167969 581.636719 266.707031 571.84375 274.640625 L 566.164062 279.285156 L 566.164062 285.003906 L 597.75 285.003906 L 597.75 277.25 Z M 580.921875 277.25 " fill-opacity="1" fill-rule="nonzero"/></svg>