<svg xmlns="http://www.w3.org/2000/svg" xmlns:xlink="http://www.w3.org/1999/xlink" width="1366" zoomAndPan="magnify" viewBox="0 0 1024.5 576" height="768" preserveAspectRatio="xMidYMid meet" version="1.0"><defs><clipPath id="4f2d6fb30f"><path d="M 313.648438 89.648438 L 710.203125 89.648438 L 710.203125 486.203125 L 313.648438 486.203125 Z M 313.648438 89.648438 " clip-rule="nonzero"/></clipPath><clipPath id="fbe93a069a"><path d="M 313.648438 89.648438 L 710.203125 89.648438 L 710.203125 486.203125 L 313.648438 486.203125 Z M 313.648438 89.648438 " clip-rule="nonzero"/></clipPath></defs><path fill="#a6192e" d="M 319.15625 95.15625 L 704.835938 95.15625 L 704.835938 480.835938 L 319.15625 480.835938 Z M 319.15625 95.15625 " fill-opacity="1" fill-rule="nonzero"/><g clip-path="url(#4f2d6fb30f)"><path fill="#a6192e" d="M 699.324219 100.667969 L 699.324219 475.324219 L 324.667969 475.324219 L 324.667969 100.667969 L 699.324219 100.667969 M 710.34375 89.648438 L 313.648438 89.648438 L 313.648438 486.34375 L 710.34375 486.34375 Z M 710.34375 89.648438 " fill-opacity="1" fill-rule="nonzero"/></g><path fill="#fdfaf5" d="M 534.035156 161.273438 C 534.035156 162.175781 533.988281 163.074219 533.902344 163.972656 C 533.8125 164.871094 533.679688 165.761719 533.503906 166.648438 C 533.328125 167.53125 533.109375 168.40625 532.847656 169.269531 C 532.585938 170.132812 532.28125 170.980469 531.9375 171.816406 C 531.59375 172.648438 531.207031 173.464844 530.78125 174.257812 C 530.355469 175.054688 529.894531 175.828125 529.390625 176.578125 C 528.890625 177.328125 528.351562 178.050781 527.78125 178.75 C 527.207031 179.445312 526.601562 180.113281 525.964844 180.753906 C 525.328125 181.390625 524.660156 181.996094 523.960938 182.566406 C 523.265625 183.140625 522.539062 183.675781 521.789062 184.179688 C 521.039062 184.679688 520.269531 185.144531 519.472656 185.566406 C 518.675781 185.992188 517.863281 186.378906 517.027344 186.722656 C 516.195312 187.070312 515.347656 187.371094 514.484375 187.636719 C 513.621094 187.898438 512.746094 188.117188 511.859375 188.292969 C 510.976562 188.46875 510.082031 188.601562 509.1875 188.6875 C 508.289062 188.777344 507.386719 188.820312 506.484375 188.820312 C 505.582031 188.820312 504.683594 188.777344 503.785156 188.6875 C 502.886719 188.601562 501.996094 188.46875 501.109375 188.292969 C 500.226562 188.117188 499.351562 187.898438 498.488281 187.636719 C 497.625 187.371094 496.777344 187.070312 495.945312 186.722656 C 495.109375 186.378906 494.296875 185.992188 493.5 185.566406 C 492.703125 185.144531 491.929688 184.679688 491.179688 184.179688 C 490.429688 183.675781 489.707031 183.140625 489.007812 182.566406 C 488.3125 181.996094 487.644531 181.390625 487.007812 180.753906 C 486.367188 180.113281 485.761719 179.445312 485.191406 178.75 C 484.617188 178.050781 484.082031 177.328125 483.578125 176.578125 C 483.078125 175.828125 482.617188 175.054688 482.191406 174.257812 C 481.765625 173.464844 481.378906 172.648438 481.035156 171.816406 C 480.6875 170.980469 480.386719 170.132812 480.125 169.269531 C 479.863281 168.40625 479.644531 167.53125 479.464844 166.648438 C 479.289062 165.761719 479.160156 164.871094 479.070312 163.972656 C 478.980469 163.074219 478.9375 162.175781 478.9375 161.273438 C 478.9375 160.371094 478.980469 159.46875 479.070312 158.574219 C 479.160156 157.675781 479.289062 156.78125 479.464844 155.898438 C 479.644531 155.011719 479.863281 154.140625 480.125 153.277344 C 480.386719 152.414062 480.6875 151.5625 481.035156 150.730469 C 481.378906 149.898438 481.765625 149.082031 482.191406 148.285156 C 482.617188 147.492188 483.078125 146.71875 483.578125 145.96875 C 484.082031 145.21875 484.617188 144.492188 485.191406 143.796875 C 485.761719 143.097656 486.367188 142.429688 487.007812 141.792969 C 487.644531 141.15625 488.3125 140.550781 489.007812 139.976562 C 489.707031 139.40625 490.429688 138.867188 491.179688 138.367188 C 491.929688 137.867188 492.703125 137.402344 493.5 136.976562 C 494.296875 136.550781 495.109375 136.167969 495.945312 135.820312 C 496.777344 135.476562 497.625 135.171875 498.488281 134.910156 C 499.351562 134.648438 500.226562 134.429688 501.109375 134.253906 C 501.996094 134.078125 502.886719 133.945312 503.785156 133.855469 C 504.683594 133.769531 505.582031 133.722656 506.484375 133.722656 C 507.386719 133.722656 508.289062 133.769531 509.1875 133.855469 C 510.082031 133.945312 510.976562 134.078125 511.859375 134.253906 C 512.746094 134.429688 513.621094 134.648438 514.484375 134.910156 C 515.347656 135.171875 516.195312 135.476562 517.027344 135.820312 C 517.863281 136.167969 518.675781 136.550781 519.472656 136.976562 C 520.269531 137.402344 521.039062 137.867188 521.789062 138.367188 C 522.539062 138.867188 523.265625 139.40625 523.960938 139.976562 C 524.660156 140.550781 525.328125 141.15625 525.964844 141.792969 C 526.601562 142.429688 527.207031 143.097656 527.78125 143.796875 C 528.351562 144.492188 528.890625 145.21875 529.390625 145.96875 C 529.894531 146.71875 530.355469 147.492188 530.78125 148.285156 C 531.207031 149.082031 531.59375 149.898438 531.9375 150.730469 C 532.28125 151.5625 532.585938 152.414062 532.847656 153.277344 C 533.109375 154.140625 533.328125 155.011719 533.503906 155.898438 C 533.679688 156.78125 533.8125 157.675781 533.902344 158.574219 C 533.988281 159.46875 534.035156 160.371094 534.035156 161.273438 Z M 534.035156 161.273438 " fill-opacity="1" fill-rule="nonzero"/><g clip-path="url(#fbe93a069a)"><path stroke-linecap="butt" transform="matrix(11.019361, 0, 0, 11.019361, 291.608199, 67.608099)" fill="none" stroke-linejoin="miter" d="M 19.000046 12.999962 L 19.000046 20.000071 C 19.000046 21.105015 19.895133 22.000102 21.000077 22.000102 L 24.335825 22.000102 C 24.73888 22.000102 25.101878 22.241155 25.257853 22.611951 L 27.521979 27.99984 L 30.999877 27.99984 " stroke="#ffffff" stroke-width="2" stroke-opacity="1" stroke-miterlimit="10"/></g><path stroke-linecap="butt" transform="matrix(11.019361, 0, 0, 11.019361, 291.608199, 67.608099)" fill="none" stroke-linejoin="miter" d="M 19.000046 17.000024 L 25.000139 17.000024 " stroke="#ffffff" stroke-width="2" stroke-opacity="1" stroke-miterlimit="10"/><path fill="#fdfaf5" d="M 557.683594 372.945312 C 545.339844 394.5625 522.101562 409.207031 495.464844 409.207031 C 455.972656 409.207031 423.839844 377.074219 423.839844 337.582031 C 423.839844 307.851562 442.066406 282.296875 467.917969 271.476562 L 467.917969 248.0625 C 429.667969 259.851562 401.800781 295.523438 401.800781 337.582031 C 401.800781 389.230469 443.820312 431.246094 495.464844 431.246094 C 524.570312 431.246094 550.605469 417.902344 567.796875 397.019531 Z M 557.683594 372.945312 " fill-opacity="1" fill-rule="nonzero"/></svg>