<svg xmlns="http://www.w3.org/2000/svg" xmlns:xlink="http://www.w3.org/1999/xlink" width="1366" zoomAndPan="magnify" viewBox="0 0 1024.5 576" height="768" preserveAspectRatio="xMidYMid meet" version="1.0"><defs><clipPath id="e3a688675f"><path d="M 305.609375 103 L 691 103 L 691 487.175781 L 305.609375 487.175781 Z M 305.609375 103 " clip-rule="nonzero"/></clipPath><clipPath id="1022586684"><path d="M 533 88 L 718.65625 88 L 718.65625 273 L 533 273 Z M 533 88 " clip-rule="nonzero"/></clipPath></defs><g clip-path="url(#e3a688675f)"><path fill="#a6192e" d="M 393.15625 123.6875 C 396.453125 123.6875 399.460938 125.519531 400.960938 128.449219 L 440.394531 205.773438 C 442.152344 209.179688 441.417969 213.359375 438.671875 216.035156 L 419.394531 234.613281 C 413.128906 240.660156 411.625 250.1875 415.804688 257.847656 C 443.25 308.601562 485.0625 350.15625 536 377.3125 C 543.734375 381.453125 553.226562 379.914062 559.234375 373.609375 L 577.703125 354.226562 C 580.34375 351.441406 584.519531 350.707031 587.964844 352.429688 L 665.507812 391.382812 C 669.832031 393.546875 671.554688 398.824219 669.394531 403.148438 C 668.988281 403.917969 668.476562 404.613281 667.890625 405.234375 L 611.527344 464.382812 C 609.476562 466.542969 606.433594 467.496094 603.464844 466.910156 C 464.101562 438.621094 354.933594 330.148438 325.800781 190.96875 C 325.179688 188.035156 326.128906 184.996094 328.292969 182.90625 L 387.035156 126.140625 C 388.648438 124.527344 390.847656 123.6875 393.121094 123.6875 Z M 393.15625 103.605469 C 385.71875 103.605469 378.535156 106.5 373.148438 111.703125 L 314.402344 168.429688 C 307.257812 175.320312 304.179688 185.398438 306.230469 195.109375 C 337.015625 342.132812 452.339844 456.722656 599.582031 486.589844 C 609.257812 488.570312 619.335938 485.378906 626.152344 478.234375 L 682.511719 419.125 C 693.503906 407.582031 693.066406 389.332031 681.558594 378.335938 C 679.46875 376.394531 677.160156 374.710938 674.597656 373.464844 L 597.054688 334.507812 C 585.730469 328.792969 572.023438 331.175781 563.265625 340.371094 L 545.125 359.390625 C 498 334.179688 459.265625 295.703125 433.757812 248.757812 L 452.667969 230.472656 C 461.792969 221.640625 464.101562 207.933594 458.3125 196.609375 L 418.882812 119.324219 C 413.933594 109.648438 404.003906 103.605469 393.15625 103.605469 " fill-opacity="1" fill-rule="nonzero"/></g><g clip-path="url(#1022586684)"><path fill="#a6192e" d="M 718.351562 260.375 C 718.71875 266.859375 713.769531 272.429688 707.285156 272.761719 C 700.90625 273.128906 695.410156 268.328125 694.898438 261.988281 C 689.4375 181.328125 625.269531 117.164062 544.613281 111.664062 C 538.128906 111.226562 533.253906 105.65625 533.691406 99.167969 C 534.132812 92.683594 539.738281 87.808594 546.226562 88.25 C 638.574219 94.515625 712.121094 168.027344 718.351562 260.375 " fill-opacity="1" fill-rule="nonzero"/></g><path fill="#a6192e" d="M 555.09375 148.386719 C 548.71875 147.324219 542.671875 151.644531 541.609375 158.058594 C 540.546875 164.398438 544.796875 170.410156 551.136719 171.546875 C 594.046875 178.910156 627.691406 212.550781 635.054688 255.464844 C 636.226562 261.878906 642.382812 266.089844 648.761719 264.917969 C 655.027344 263.78125 659.242188 257.808594 658.253906 251.507812 C 649.164062 198.773438 607.863281 157.472656 555.09375 148.386719 " fill-opacity="1" fill-rule="nonzero"/><path fill="#a6192e" d="M 552.308594 207.898438 C 546.078125 206.140625 539.59375 209.804688 537.832031 216.035156 C 536.113281 222.226562 539.667969 228.675781 545.824219 230.472656 C 560.480469 234.6875 571.914062 246.121094 576.128906 260.742188 C 578.035156 266.933594 584.59375 270.453125 590.824219 268.546875 C 596.832031 266.679688 600.351562 260.375 598.703125 254.253906 C 592.253906 231.863281 574.734375 214.347656 552.308594 207.898438 " fill-opacity="1" fill-rule="nonzero"/></svg>