<svg xmlns="http://www.w3.org/2000/svg" xmlns:xlink="http://www.w3.org/1999/xlink" width="1366" zoomAndPan="magnify" viewBox="0 0 1024.5 576" height="768" preserveAspectRatio="xMidYMid meet" version="1.0"><defs><clipPath id="4b8777355b"><path d="M 242.675781 95.09375 L 781.660156 95.09375 L 781.660156 481 L 242.675781 481 Z M 242.675781 95.09375 " clip-rule="nonzero"/></clipPath></defs><g clip-path="url(#4b8777355b)"><path fill="#a6192e" d="M 299.820312 463.398438 C 291.980469 463.398438 284.496094 461.140625 278.082031 456.957031 L 431.636719 299.621094 L 481.121094 349.957031 C 489.269531 358.242188 500.148438 362.804688 511.765625 362.8125 C 511.773438 362.8125 511.773438 362.8125 511.777344 362.8125 C 523.382812 362.8125 534.265625 358.253906 542.40625 349.980469 L 592.019531 299.609375 L 745.890625 456.972656 C 739.488281 461.148438 732.011719 463.398438 724.171875 463.398438 Z M 265.964844 444.625 C 262.042969 438.355469 259.929688 431.097656 259.929688 423.515625 L 259.929688 152.335938 C 259.929688 144.707031 262.054688 137.410156 266.023438 131.132812 L 419.523438 287.289062 Z M 299.820312 112.453125 L 724.171875 112.453125 C 731.976562 112.453125 739.425781 114.675781 745.804688 118.816406 L 585.886719 281.207031 L 530.089844 337.847656 C 525.222656 342.800781 518.714844 345.527344 511.777344 345.527344 C 511.773438 345.527344 511.773438 345.527344 511.773438 345.527344 C 504.824219 345.527344 498.316406 342.792969 493.449219 337.84375 L 437.78125 281.214844 L 278.167969 118.832031 C 284.558594 114.679688 292.011719 112.453125 299.820312 112.453125 Z M 604.148438 287.289062 L 757.957031 131.101562 C 761.933594 137.398438 764.066406 144.699219 764.066406 152.335938 L 764.066406 423.515625 C 764.066406 431.105469 761.953125 438.367188 758.007812 444.644531 Z M 764.730469 112.066406 C 764.730469 112.066406 764.730469 112.058594 764.730469 112.058594 C 764.726562 112.058594 764.726562 112.054688 764.71875 112.054688 C 764.71875 112.046875 764.71875 112.046875 764.714844 112.042969 C 764.714844 112.042969 764.707031 112.035156 764.703125 112.03125 C 753.90625 101.160156 739.515625 95.171875 724.171875 95.171875 L 299.820312 95.171875 C 284.46875 95.171875 270.0625 101.171875 259.253906 112.070312 C 259.25 112.074219 259.242188 112.082031 259.238281 112.085938 C 248.542969 122.832031 242.644531 137.128906 242.644531 152.335938 L 242.644531 423.515625 C 242.644531 438.695312 248.523438 452.972656 259.191406 463.730469 C 259.21875 463.757812 259.25 463.785156 259.277344 463.8125 C 259.28125 463.820312 259.289062 463.824219 259.292969 463.835938 C 259.296875 463.84375 259.308594 463.847656 259.316406 463.851562 C 270.128906 474.699219 284.503906 480.679688 299.820312 480.679688 L 724.171875 480.679688 C 739.503906 480.679688 753.882812 474.699219 764.679688 463.851562 C 764.679688 463.847656 764.6875 463.847656 764.691406 463.84375 C 764.695312 463.84375 764.695312 463.835938 764.703125 463.832031 C 764.730469 463.800781 764.757812 463.78125 764.785156 463.75 C 775.46875 452.984375 781.347656 438.695312 781.347656 423.515625 L 781.347656 152.335938 C 781.347656 137.121094 775.449219 122.820312 764.730469 112.066406 " fill-opacity="1" fill-rule="nonzero"/></g></svg>